# xmcd
#
# Track frame offsets: 
#        150
#        19044
#        35759
#        51743
#        67812
#        84871
#        99701
#        114856
#        129455
#        145381
#
# Disc length: 2186 seconds
#
# Revision: 0
# Processed by: cddbd v1.5.2PL0 Copyright (c) Steve Scherf et al.
# Submitted via: ExactAudioCopy v0.95b4
#
DISCID=8508880a
DTITLE=ลูกปัด พิมพ์ชนก - ขอตัวไปร้องไห้
DYEAR=2007
DGENRE=Country
TTITLE0=ขอตัวไปร้องไห้
TTITLE1=แช่แว้บ
TTITLE2=เสียสาวอยู่ม.3
TTITLE3=ใบ้แบ๊ะๆ
TTITLE4=ฝากความคิดถึง
TTITLE5=วันที่ผู้ชายเสียใจ
TTITLE6=รักคนไม่หล่อ
TTITLE7=ห้ามยืมนะจ๊ะ
TTITLE8=กรองรักกรองใจ
TTITLE9=หญิงแท้แพ้กระเทย
EXTD=
EXTT0=
EXTT1=
EXTT2=
EXTT3=
EXTT4=
EXTT5=
EXTT6=
EXTT7=
EXTT8=
EXTT9=
PLAYORDER=
